<?xml version="1.0" standalone="no"?>
<!DOCTYPE svg PUBLIC "-//W3C//DTD SVG 20010904//EN"
 "http://www.w3.org/TR/2001/REC-SVG-20010904/DTD/svg10.dtd">
<svg version="1.0" xmlns="http://www.w3.org/2000/svg"
 width="235.000000pt" height="234.000000pt" viewBox="0 0 235.000000 234.000000"
 preserveAspectRatio="xMidYMid meet">

<g transform="translate(0.000000,234.000000) scale(0.100000,-0.100000)"
fill="#000000" stroke="none">
<path d="M1017 2180 c-381 -69 -679 -338 -794 -715 -25 -84 -27 -103 -27 -270
0 -167 2 -186 27 -270 104 -341 351 -588 692 -692 84 -25 103 -27 270 -27 167
0 186 2 268 27 356 109 593 352 698 712 20 70 23 102 24 250 0 157 -3 177 -28
263 -37 123 -65 186 -130 286 -130 198 -324 341 -564 412 -74 22 -112 27 -238
30 -82 1 -172 -1 -198 -6z m-13 -552 c7 -13 51 -89 98 -169 l83 -146 96 166
96 166 57 3 c31 2 56 -1 55 -5 -1 -18 -296 -518 -305 -517 -9 1 -304 500 -304
515 0 5 25 9 55 9 46 0 57 -4 69 -22z m57 -356 c64 -112 120 -204 124 -204 5
0 60 92 124 204 l117 203 47 3 47 3 -2 -338 -3 -338 -47 -3 -48 -3 -2 240 -3
240 -101 -177 c-135 -236 -122 -236 -257 0 l-102 176 -5 -236 -5 -237 -47 -3
-48 -3 0 341 0 341 47 -3 47 -3 117 -203z"/>
</g>
</svg>
