<?xml version="1.0" encoding="utf-8"?>
<svg viewBox="184.395 118.02 198 199.663" xmlns="http://www.w3.org/2000/svg">
  <rect x="234.529" y="151.011" width="103.725" height="136.677" style="stroke: rgb(0, 0, 0); fill: rgb(255, 255, 255);"/>
  <g transform="matrix(0.1, 0, 0, -0.1, 164.895309, 343.80835)" fill="#000000" stroke="none">
    <path d="M1050 2248 c-41 -5 -124 -25 -183 -45 -257 -85 -467 -271 -581 -514 -77 -165 -91 -227 -91 -429 0 -140 4 -188 18 -240 34 -120 78 -219 136 -308 395 -601 1277 -601 1672 0 58 89 102 188 136 308 14 52 18 100 18 240 0 153 -3 185 -24 255 -30 107 -107 266 -164 341 -39 52 -211 224 -223 224 -3 0 -39 20 -82 45 -98 57 -261 110 -377 124 -103 12 -149 12 -255 -1z m-20 -725 c80 -144 148 -265 152 -268 3 -3 72 114 154 261 81 146 153 268 160 271 6 2 32 3 58 1 l46 -3 -205 -374 c-113 -206 -206 -376 -208 -377 -3 -4 -417 740 -417 750 0 4 26 6 57 4 l58 -3 145 -262z m-16 -247 c143 -248 172 -292 181 -278 7 9 83 142 169 294 l158 278 54 -2 54 -2 0 -458 0 -458 -60 0 -60 0 -2 335 -3 334 -144 -250 -143 -250 -36 3 c-35 3 -36 6 -181 257 l-146 253 -3 -341 -2 -341 -60 0 -60 0 0 460 0 460 58 0 57 0 169 -294z"/>
  </g>
  <rect x="263.736" y="258.855" width="41.19" height="26.586" style="stroke: rgb(0, 0, 0);"/>
  <rect x="297.063" y="276.08" width="0.374" height="4.493" style="stroke: rgb(0, 0, 0);"/>
</svg>