<svg id="visual" viewBox="0 0 900 600" width="900" height="600" xmlns="http://www.w3.org/2000/svg" xmlns:xlink="http://www.w3.org/1999/xlink" version="1.1"><rect width="900" height="600" fill="#1d1d1d"></rect><g><g transform="translate(309 505)"><path d="M0 -21.7L18.8 -10.9L18.8 10.9L0 21.7L-18.8 10.9L-18.8 -10.9Z" fill="none" stroke="#26a69a" stroke-width="2"></path></g><g transform="translate(612 87)"><path d="M0 -16L13.9 -8L13.9 8L0 16L-13.9 8L-13.9 -8Z" fill="none" stroke="#26a69a" stroke-width="2"></path></g><g transform="translate(13 583)"><path d="M0 -11L9.5 -5.5L9.5 5.5L0 11L-9.5 5.5L-9.5 -5.5Z" fill="none" stroke="#26a69a" stroke-width="2"></path></g><g transform="translate(526 227)"><path d="M0 -5L4.3 -2.5L4.3 2.5L0 5L-4.3 2.5L-4.3 -2.5Z" fill="none" stroke="#26a69a" stroke-width="2"></path></g><g transform="translate(508 120)"><path d="M0 -8L6.9 -4L6.9 4L0 8L-6.9 4L-6.9 -4Z" stroke="#26a69a" fill="none" stroke-width="2"></path></g><g transform="translate(293 340)"><path d="M0 -5L4.3 -2.5L4.3 2.5L0 5L-4.3 2.5L-4.3 -2.5Z" stroke="#26a69a" fill="none" stroke-width="2"></path></g><g transform="translate(367 279)"><path d="M0 -2L1.7 -1L1.7 1L0 2L-1.7 1L-1.7 -1Z" stroke="#26a69a" fill="none" stroke-width="2"></path></g><g transform="translate(626 282)"><path d="M0 -8L6.9 -4L6.9 4L0 8L-6.9 4L-6.9 -4Z" stroke="#26a69a" fill="none" stroke-width="2"></path></g><g transform="translate(813 551)"><path d="M0 -11L9.5 -5.5L9.5 5.5L0 11L-9.5 5.5L-9.5 -5.5Z" stroke="#26a69a" fill="none" stroke-width="2"></path></g><g transform="translate(174 264)"><path d="M0 -18L15.6 -9L15.6 9L0 18L-15.6 9L-15.6 -9Z" stroke="#26a69a" fill="none" stroke-width="2"></path></g><g transform="translate(776 271)"><path d="M0 -5L4.3 -2.5L4.3 2.5L0 5L-4.3 2.5L-4.3 -2.5Z" stroke="#26a69a" fill="none" stroke-width="2"></path></g></g></svg>